<svg xmlns="http://www.w3.org/2000/svg" width="420" height="300" viewBox="0 0 420 300" fill="none">
  <defs>
    <linearGradient id="ivory" x1="0" y1="0" x2="1" y2="1">
      <stop stop-color="#fffefb"/><stop offset=".55" stop-color="#f8f4ec"/><stop offset="1" stop-color="#e3d6c6"/>
    </linearGradient>
    <linearGradient id="paper" x1="0" y1="0" x2="1" y2="1">
      <stop stop-color="#fffefb"/><stop offset="1" stop-color="#f1e9dd"/>
    </linearGradient>
    <linearGradient id="clay" x1="0" y1="0" x2="1" y2="1">
      <stop stop-color="#fba98b"/><stop offset=".45" stop-color="#dc7355"/><stop offset="1" stop-color="#ad482f"/>
    </linearGradient>
    <linearGradient id="clayDeep" x1="0" y1="0" x2="1" y2="1">
      <stop stop-color="#e98c69"/><stop offset=".5" stop-color="#cf6a4b"/><stop offset="1" stop-color="#a5452e"/>
    </linearGradient>
    <linearGradient id="sage" x1="0" y1="0" x2="1" y2="1">
      <stop stop-color="#d5e1c3"/><stop offset=".5" stop-color="#a0b38d"/><stop offset="1" stop-color="#748e68"/>
    </linearGradient>
    <linearGradient id="honey" x1="0" y1="0" x2="1" y2="1">
      <stop stop-color="#ffe6ae"/><stop offset=".5" stop-color="#f2be62"/><stop offset="1" stop-color="#d4953b"/>
    </linearGradient>
    <linearGradient id="kraftTop" x1="0" y1="0" x2="1" y2="1">
      <stop stop-color="#fae6cf"/><stop offset="1" stop-color="#ecd0ae"/>
    </linearGradient>
    <linearGradient id="kraftLeft" x1="0" y1="0" x2="1" y2="1">
      <stop stop-color="#ecd1b0"/><stop offset="1" stop-color="#d9b58d"/>
    </linearGradient>
    <linearGradient id="kraftRight" x1="0" y1="0" x2="1" y2="1">
      <stop stop-color="#d7b089"/><stop offset="1" stop-color="#bf946c"/>
    </linearGradient>
    <linearGradient id="platformSide" x1="80" y1="232" x2="330" y2="290" gradientUnits="userSpaceOnUse">
      <stop stop-color="#f1e1ce"/><stop offset=".53" stop-color="#e1cdb7"/><stop offset="1" stop-color="#cab69e"/>
    </linearGradient>
    <linearGradient id="platformTop" x1="90" y1="205" x2="320" y2="262" gradientUnits="userSpaceOnUse">
      <stop stop-color="#fffdf6"/><stop offset="1" stop-color="#efe5d7"/>
    </linearGradient>
    <radialGradient id="orb" cx=".3" cy=".23" r=".85">
      <stop stop-color="#ffead4"/><stop offset=".42" stop-color="#f4b48b"/><stop offset=".8" stop-color="#d87951"/><stop offset="1" stop-color="#b85f3b"/>
    </radialGradient>
    <radialGradient id="sageOrb" cx=".28" cy=".2" r=".87">
      <stop stop-color="#edf2da"/><stop offset=".45" stop-color="#b7c7a5"/><stop offset="1" stop-color="#708a65"/>
    </radialGradient>
    <filter id="groundShadow" x="-40%" y="-100%" width="180%" height="300%"><feGaussianBlur stdDeviation="12"/></filter>
    <filter id="softShadow" x="-35%" y="-30%" width="180%" height="180%" color-interpolation-filters="sRGB">
      <feDropShadow dx="0" dy="10" stdDeviation="9" flood-color="#836b52" flood-opacity=".15"/>
    </filter>
    <filter id="floatShadow" x="-40%" y="-30%" width="190%" height="190%" color-interpolation-filters="sRGB">
      <feDropShadow dx="3" dy="10" stdDeviation="8" flood-color="#916c50" flood-opacity=".15"/>
    </filter>
    <filter id="smallShadow" x="-40%" y="-40%" width="180%" height="200%" color-interpolation-filters="sRGB">
      <feDropShadow dx="0" dy="4" stdDeviation="4" flood-color="#876046" flood-opacity=".17"/>
    </filter>
  </defs>
  <ellipse cx="210" cy="162" rx="172" ry="110" transform="rotate(-11 210 162)" stroke="#dbc8b1" stroke-opacity=".45" stroke-dasharray="3 9"/>
  <circle cx="46" cy="140" r="3.5" fill="#d2b99b"/>
  <circle cx="378" cy="186" r="3" fill="#d9ad8e"/>
  <circle cx="232" cy="30" r="3" fill="#b3be9d"/>
  <path d="M86 50v10m-5-5h10M352 92v10m-5-5h10" stroke="#c8ad8e" stroke-width="1.8" stroke-linecap="round"/>
  <ellipse cx="210" cy="272" rx="140" ry="18" fill="#9a785a" opacity=".16" filter="url(#groundShadow)"/>
  <path d="M70 236c0-27 63-48 140-48s140 21 140 48v13c0 27-63 48-140 48S70 276 70 249v-13Z" fill="url(#platformSide)"/>
  <ellipse cx="210" cy="236" rx="140" ry="48" fill="url(#platformTop)"/>
  <ellipse cx="210" cy="235" rx="138" ry="46" stroke="#fffdf7" stroke-width="1.5"/>
  <ellipse cx="210" cy="236" rx="110" ry="16.0" fill="#aa8d6e" opacity=".2" filter="url(#groundShadow)"/><g filter="url(#softShadow)"><g transform="translate(118 0) scale(1 1)"><path d="M-16 150v62" stroke="#c9b39b" stroke-width="5" stroke-linecap="round"/><rect x="-24" y="144" width="14" height="52" rx="7" fill="url(#clayDeep)"/><path d="M-22 198h34" stroke="#c9b39b" stroke-width="5" stroke-linecap="round"/><path d="M-20 200v26M8 200v26" stroke="#c9b39b" stroke-width="4.5" stroke-linecap="round"/><ellipse cx="-6" cy="196" rx="22" ry="8" fill="url(#clay)"/></g><g transform="translate(302 0) scale(-1 1)"><path d="M-16 150v62" stroke="#c9b39b" stroke-width="5" stroke-linecap="round"/><rect x="-24" y="144" width="14" height="52" rx="7" fill="url(#clayDeep)"/><path d="M-22 198h34" stroke="#c9b39b" stroke-width="5" stroke-linecap="round"/><path d="M-20 200v26M8 200v26" stroke="#c9b39b" stroke-width="4.5" stroke-linecap="round"/><ellipse cx="-6" cy="196" rx="22" ry="8" fill="url(#clay)"/></g><path d="M204 186h12v44h-12z" fill="#d7c7b6"/><ellipse cx="210" cy="232" rx="30" ry="8" fill="#e3d6c6" stroke="#fffaf0"/><ellipse cx="210" cy="184" rx="78" ry="24" fill="#d9c5ad"/><ellipse cx="210" cy="180" rx="78" ry="24" fill="url(#ivory)" stroke="#fffaf0" stroke-width="1.5"/><ellipse cx="186" cy="178" rx="16" ry="5" fill="#f1e5d6"/><ellipse cx="236" cy="180" rx="16" ry="5" fill="#f1e5d6"/><path d="M206 164v12M214 164v12" stroke="#c9b39b" stroke-width="2.5" stroke-linecap="round"/><ellipse cx="210" cy="164" rx="7" ry="3" fill="#a0b38d"/></g><g transform="translate(310 54) rotate(12)" filter="url(#floatShadow)"><rect x="2" y="4" width="48" height="48" rx="15.4" fill="#7e966e"/><rect width="48" height="48" rx="15.4" fill="url(#sage)" stroke="#dfebcd"/><g transform="scale(1.000)" stroke="#fffdf0" stroke-width="4" stroke-linecap="round" stroke-linejoin="round" fill="none"><rect x="13" y="13" width="9" height="9" rx="2.5"/><rect x="26" y="13" width="9" height="9" rx="2.5"/><rect x="13" y="26" width="9" height="9" rx="2.5"/><rect x="26" y="26" width="9" height="9" rx="2.5"/></g></g><circle cx="110" cy="70" r="15" fill="url(#orb)" filter="url(#smallShadow)"/><circle cx="356" cy="214" r="11" fill="url(#sageOrb)" filter="url(#smallShadow)"/>
</svg>
